<?xml version="1.0" standalone="no"?>
<!DOCTYPE svg PUBLIC "-//W3C//DTD SVG 20010904//EN"
 "http://www.w3.org/TR/2001/REC-SVG-20010904/DTD/svg10.dtd">
<svg version="1.0" xmlns="http://www.w3.org/2000/svg"
 width="512.000000pt" height="512.000000pt" viewBox="0 0 512.000000 512.000000"
 preserveAspectRatio="xMidYMid meet">
<metadata>
Created by potrace 1.14, written by Peter Selinger 2001-2017
</metadata>
<g transform="translate(0.000000,512.000000) scale(0.100000,-0.100000)"
fill="#000000" stroke="none">
<path d="M2040 5100 c-41 -10 -76 -19 -78 -19 -1 0 -14 -3 -30 -7 -64 -15
-227 -67 -304 -98 -528 -213 -953 -572 -1251 -1056 -43 -70 -79 -136 -90 -163
-5 -14 47 -33 332 -127 186 -60 343 -110 349 -110 6 0 25 24 43 52 86 142 234
309 371 424 218 181 498 324 741 378 l27 6 -2 368 c-3 317 -5 367 -18 368 -8
1 -49 -6 -90 -16z"/>
<path d="M2970 4750 l0 -370 28 -5 c15 -4 77 -22 137 -42 312 -100 631 -317
833 -567 31 -39 59 -73 62 -76 3 -3 32 -46 65 -96 l60 -91 60 19 c33 11 67 22
75 25 8 4 17 7 20 7 3 1 125 41 271 89 l267 87 -20 42 c-26 53 -138 236 -186
303 -87 121 -164 209 -296 340 -200 198 -384 331 -636 463 -147 76 -387 167
-518 196 -13 3 -31 7 -40 10 -9 3 -33 8 -52 11 -19 3 -53 10 -75 15 -22 5 -43
10 -47 10 -5 0 -8 -166 -8 -370z"/>
<path d="M2515 3597 c-22 -72 -40 -134 -40 -137 0 -3 -15 -52 -34 -110 -18
-58 -48 -157 -67 -220 -20 -63 -43 -138 -51 -167 l-16 -51 -221 4 c-466 10
-637 11 -629 4 4 -4 85 -61 178 -127 518 -366 517 -364 510 -381 -3 -9 -26
-75 -50 -147 -24 -71 -84 -248 -134 -393 -49 -145 -84 -259 -78 -254 7 5 86
65 177 134 91 68 241 182 333 251 l168 127 142 -108 c524 -400 561 -426 539
-386 -5 10 -33 87 -61 169 -27 83 -86 256 -130 385 -45 129 -81 236 -81 237 0
2 210 152 273 195 11 7 57 40 103 73 46 33 138 98 204 145 66 46 120 85 120
86 0 1 -96 0 -212 -2 -117 -2 -310 -6 -429 -8 l-216 -4 -20 67 c-12 36 -56
181 -98 321 -43 140 -88 288 -101 329 -13 40 -24 80 -24 87 0 41 -19 -1 -55
-119z"/>
<path d="M27 2945 c-31 -80 -29 -588 3 -767 5 -29 12 -68 15 -86 21 -128 104
-404 157 -522 79 -177 178 -355 264 -474 24 -34 52 -72 61 -85 28 -39 123
-151 173 -204 l45 -49 25 30 c14 16 42 54 62 83 20 30 107 150 192 268 l155
214 -53 66 c-189 238 -319 523 -377 824 -18 96 -24 181 -24 334 l0 153 -310
101 c-171 55 -326 107 -347 114 -31 12 -37 12 -41 0z"/>
<path d="M4915 2888 c-82 -28 -233 -78 -333 -112 l-184 -61 -4 -175 c-3 -176
-6 -204 -24 -295 -6 -27 -12 -59 -14 -70 -48 -248 -206 -571 -386 -786 l-30
-37 211 -293 c117 -162 214 -296 216 -299 7 -8 124 121 210 231 240 309 399
651 489 1054 10 44 26 145 38 245 13 100 15 519 3 565 -3 11 -6 35 -6 53 -1
24 -5 32 -18 31 -10 -1 -85 -24 -168 -51z"/>
<path d="M1731 717 c-60 -84 -157 -217 -214 -297 l-105 -145 26 -14 c145 -78
413 -169 617 -210 97 -19 132 -25 245 -39 77 -9 430 -9 515 1 39 4 88 10 110
12 22 3 49 7 60 9 28 6 177 37 196 41 95 19 417 138 499 184 8 5 15 15 14 22
-1 12 -102 156 -351 497 -49 67 -72 91 -83 86 -33 -14 -206 -75 -225 -78 -11
-3 -51 -11 -90 -19 -330 -71 -668 -51 -975 57 -41 15 -87 31 -102 35 -26 9
-31 4 -137 -142z"/>
</g>
</svg>
